<svg width="16" height="12" viewBox="0 0 16 12" fill="none" xmlns="http://www.w3.org/2000/svg">
<path d="M1.79053 2.21094C2.30322 2.21094 2.71338 1.80078 2.71338 1.29541C2.71338 0.782715 2.30322 0.372559 1.79053 0.372559C1.27783 0.372559 0.867676 0.782715 0.867676 1.29541C0.867676 1.80078 1.27783 2.21094 1.79053 2.21094ZM5.02783 1.88135H15.0327C15.3623 1.88135 15.626 1.625 15.626 1.29541C15.626 0.958496 15.3623 0.702148 15.0327 0.702148H5.02783C4.69092 0.702148 4.43457 0.958496 4.43457 1.29541C4.43457 1.625 4.69092 1.88135 5.02783 1.88135ZM1.79053 6.64209C2.30322 6.64209 2.71338 6.23193 2.71338 5.71924C2.71338 5.20654 2.30322 4.79639 1.79053 4.79639C1.27783 4.79639 0.867676 5.20654 0.867676 5.71924C0.867676 6.23193 1.27783 6.64209 1.79053 6.64209ZM5.02783 6.3125H15.0327C15.3623 6.3125 15.626 6.04883 15.626 5.71924C15.626 5.38965 15.3623 5.1333 15.0327 5.1333H5.02783C4.69092 5.1333 4.43457 5.38965 4.43457 5.71924C4.43457 6.04883 4.69092 6.3125 5.02783 6.3125ZM1.79053 11.0732C2.30322 11.0732 2.71338 10.6558 2.71338 10.1504C2.71338 9.6377 2.30322 9.22754 1.79053 9.22754C1.27783 9.22754 0.867676 9.6377 0.867676 10.1504C0.867676 10.6558 1.27783 11.0732 1.79053 11.0732ZM5.02783 10.7363H15.0327C15.3623 10.7363 15.626 10.48 15.626 10.1504C15.626 9.81348 15.3623 9.55713 15.0327 9.55713H5.02783C4.69092 9.55713 4.43457 9.81348 4.43457 10.1504C4.43457 10.48 4.69092 10.7363 5.02783 10.7363Z" fill="#EBEBF5" fill-opacity="0.6"/>
</svg>
