<svg width="12" height="16" viewBox="0 0 12 16" fill="none" xmlns="http://www.w3.org/2000/svg">
<path d="M11.9712 14.6479C11.9712 14.2671 11.7148 13.9961 11.3413 13.9961H6.49268C6.64648 13.9814 6.78564 13.9009 6.91016 13.7764L11.7734 8.90576C11.9126 8.75928 11.9712 8.60547 11.9712 8.42969C11.9712 8.0708 11.7075 7.79248 11.3413 7.79248C11.1655 7.79248 10.9971 7.85107 10.8799 7.96826L9.20996 9.60889L7.02002 12.0186L7.07129 10.4512V0.797852C7.07129 0.424316 6.80029 0.15332 6.41943 0.15332C6.03857 0.15332 5.76758 0.424316 5.76758 0.797852V10.4512L5.81885 12.0112L3.62891 9.60889L1.95898 7.96826C1.84912 7.85107 1.67334 7.79248 1.49756 7.79248C1.13135 7.79248 0.867676 8.0708 0.867676 8.42969C0.867676 8.60547 0.933594 8.75928 1.07275 8.90576L5.92871 13.7764C6.05322 13.9009 6.19971 13.9814 6.35352 13.9961H1.51221C1.13135 13.9961 0.867676 14.2671 0.867676 14.6479C0.867676 15.0288 1.13135 15.3071 1.51221 15.3071H11.3413C11.7148 15.3071 11.9712 15.0288 11.9712 14.6479Z" fill="#EBEBF5" fill-opacity="0.6"/>
</svg>
