<svg width="17" height="16" viewBox="0 0 17 16" fill="none" xmlns="http://www.w3.org/2000/svg">
<path d="M0.831055 6.29834C0.303711 6.29834 0.171875 6.65723 0.45752 7.06738L2.09814 9.39648C2.33984 9.7334 2.69141 9.72607 2.92578 9.39648L4.56641 7.06006C4.84473 6.65723 4.71289 6.29834 4.19287 6.29834H3.13086C3.76807 3.52979 6.229 1.49365 9.20264 1.49365C12.6597 1.49365 15.4282 4.25488 15.4282 7.71191C15.4282 11.1689 12.6597 13.9521 9.20264 13.9375C7.11523 13.9302 5.28418 12.9194 4.16357 11.3594C3.93652 11.0591 3.59229 10.9639 3.28467 11.147C2.9917 11.3301 2.91113 11.7329 3.16016 12.0552C4.55176 13.9229 6.73438 15.1826 9.20264 15.1826C13.2822 15.1826 16.6733 11.7915 16.6733 7.71191C16.6733 3.625 13.2822 0.241211 9.20264 0.241211C5.59912 0.241211 2.5376 2.87061 1.86377 6.29834H0.831055ZM8.92432 3.41992C8.60205 3.41992 8.33838 3.67627 8.33838 3.99854V8.08545C8.33838 8.25391 8.38965 8.40039 8.51416 8.56152L10.3232 10.9492C10.5649 11.2642 10.9019 11.3154 11.2021 11.1104C11.4731 10.9199 11.4951 10.5757 11.2754 10.2754L9.50293 7.8877V3.99854C9.50293 3.67627 9.24658 3.41992 8.92432 3.41992Z" fill="#EBEBF5" fill-opacity="0.6"/>
</svg>
