<svg width="19" height="16" viewBox="0 0 19 16" fill="none" xmlns="http://www.w3.org/2000/svg">
<path d="M4.63232 15.7871H14.542C15.582 15.7871 16.1899 15.1938 16.1899 14.1685V7.12988L17.208 7.98682C17.3545 8.11133 17.5229 8.22119 17.728 8.22119C18.0723 8.22119 18.3506 8.00879 18.3506 7.65723C18.3506 7.4375 18.2773 7.29102 18.1235 7.15918L16.1899 5.5332V2.50098C16.1899 2.17871 15.9849 1.97363 15.6626 1.97363H14.8789C14.564 1.97363 14.3516 2.17871 14.3516 2.50098V3.98779L10.499 0.750488C9.95703 0.289062 9.2832 0.289062 8.73389 0.750488L1.10205 7.15918C0.940918 7.29102 0.867676 7.4668 0.867676 7.63525C0.867676 7.93555 1.10205 8.22119 1.49756 8.22119C1.70264 8.22119 1.87109 8.11133 2.0249 7.98682L2.97705 7.18115V14.1685C2.97705 15.1938 3.58496 15.7871 4.63232 15.7871ZM11.7222 9.70068C11.7222 9.36377 11.5024 9.14404 11.1655 9.14404H8.06006C7.71582 9.14404 7.49609 9.36377 7.49609 9.70068V14.6079H4.88135C4.4126 14.6079 4.15625 14.3442 4.15625 13.8682V6.19238L9.35645 1.83447C9.51758 1.68799 9.71533 1.68799 9.87646 1.83447L15.0107 6.14111V13.8682C15.0107 14.3442 14.7544 14.6079 14.293 14.6079H11.7222V9.70068Z" fill="white"/>
</svg>
