<svg width="20" height="16" viewBox="0 0 20 16" fill="none" xmlns="http://www.w3.org/2000/svg">
<path d="M3.16748 11.7402H4.48584V12.8608C4.48584 14.377 5.24756 15.1313 6.78564 15.1313H16.7905C18.314 15.1313 19.0903 14.3696 19.0903 12.8608V5.9541C19.0903 4.44531 18.314 3.68359 16.7905 3.68359H15.3916V2.56299C15.3916 1.0542 14.6152 0.29248 13.0918 0.29248H3.16748C1.62939 0.29248 0.867676 1.0542 0.867676 2.56299V9.46973C0.867676 10.9858 1.62939 11.7402 3.16748 11.7402ZM3.18213 10.561C2.44971 10.561 2.04688 10.1729 2.04688 9.41113V2.62891C2.04688 1.86719 2.44971 1.47168 3.18213 1.47168H13.0698C13.7949 1.47168 14.2124 1.86719 14.2124 2.62891V3.68359H6.78564C5.24756 3.68359 4.48584 4.44531 4.48584 5.9541V10.561H3.18213ZM6.80029 13.9521C6.06787 13.9521 5.66504 13.564 5.66504 12.8022V6.02002C5.66504 5.2583 6.06787 4.86279 6.80029 4.86279H16.7686C17.4937 4.86279 17.9111 5.2583 17.9111 6.02002V12.8022C17.9111 13.564 17.4937 13.9521 16.7686 13.9521H6.80029ZM9.7959 11.9746C9.7959 12.3115 10.1401 12.436 10.4111 12.2749L14.7251 9.74072C14.9888 9.57959 14.9814 9.22803 14.7178 9.08154L10.4111 6.54004C10.1401 6.38623 9.7959 6.50342 9.7959 6.84033V11.9746Z" fill="#EBEBF5" fill-opacity="0.6"/>
</svg>
