<?xml version="1.0" ?><svg fill="none" height="24" viewBox="0 0 24 24" width="24" xmlns="http://www.w3.org/2000/svg"><path clip-rule="evenodd" d="M3 11C3 10.7239 3.22386 10.5 3.5 10.5H7C7.27614 10.5 7.5 10.7239 7.5 11V20C7.5 20.2761 7.27614 20.5 7 20.5H3.5C3.22386 20.5 3 20.2761 3 20V11ZM4 11.5V19.5H6.5V11.5H4Z" fill="black" fill-rule="evenodd"/><path clip-rule="evenodd" d="M13.8626 6.06974C13.337 5.54409 12.4419 5.75538 12.2068 6.46062L11.4743 8.65812C11.4526 8.72334 11.4176 8.78338 11.3716 8.83449L9.12165 11.3345C9.02683 11.4398 8.89174 11.5 8.75 11.5H7.5V19.5H17.2967C17.7654 19.5 18.1713 19.1745 18.2729 18.7169L19.471 13.3254C19.6792 12.3886 18.9664 11.5 18.0068 11.5H14C13.8483 11.5 13.7049 11.4312 13.61 11.3129C13.5151 11.1946 13.479 11.0396 13.5119 10.8915L14.3333 7.19535C14.4075 6.86159 14.306 6.51307 14.0642 6.27131L13.8626 6.06974ZM11.2582 6.14439C11.7283 4.73392 13.5184 4.31133 14.5697 5.36263L14.7713 5.56421C15.2548 6.04773 15.4578 6.74476 15.3095 7.41228L14.6233 10.5H18.0068C19.6061 10.5 20.7942 11.981 20.4472 13.5423L19.2491 18.9339C19.0458 19.8489 18.2341 20.5 17.2967 20.5H7C6.72386 20.5 6.5 20.2761 6.5 20V11C6.5 10.7239 6.72386 10.5 7 10.5H8.52732L10.5586 8.243L11.2582 6.14439Z" fill="black" fill-rule="evenodd"/></svg>