<svg width="19" height="20" viewBox="0 0 19 20" fill="none" xmlns="http://www.w3.org/2000/svg">
<path d="M0.924072 15.3887C0.924072 16.0918 1.47095 16.5606 2.36938 16.5606H6.23657C6.3147 18.3379 7.72095 19.9199 9.7229 19.9199C11.7249 19.9199 13.1311 18.3477 13.219 16.5606H17.0764C17.9749 16.5606 18.5217 16.0918 18.5217 15.3887C18.5217 14.4414 17.594 13.6113 16.7834 12.791C16.1584 12.1563 16.0022 10.8574 15.9143 9.72462C15.8264 6.13087 14.8596 3.78712 12.4182 2.89845C12.0959 1.68751 11.0901 0.740242 9.7229 0.740242C8.35571 0.740242 7.35962 1.68751 7.02759 2.89845C4.58618 3.78712 3.61938 6.13087 3.53149 9.72462C3.45337 10.8574 3.28735 12.1563 2.66235 12.791C1.85181 13.6113 0.924072 14.4414 0.924072 15.3887ZM2.85767 15.0762V14.959C3.05298 14.6953 3.59985 14.168 4.0686 13.6309C4.7229 12.8984 5.0354 11.6582 5.11353 9.8711C5.20142 5.93555 6.38306 4.65626 7.93579 4.23634C8.17017 4.17774 8.29712 4.07032 8.30688 3.82618C8.34595 2.86915 8.88306 2.21485 9.7229 2.21485C10.5627 2.21485 11.1096 2.86915 11.1389 3.82618C11.1584 4.07032 11.2854 4.17774 11.51 4.23634C13.0627 4.65626 14.2444 5.93555 14.3323 9.8711C14.4202 11.6582 14.7229 12.8984 15.3772 13.6309C15.8557 14.168 16.3928 14.6953 16.5784 14.959V15.0762H2.85767ZM7.77954 16.5606H11.676C11.6077 17.7813 10.8167 18.5625 9.7229 18.5625C8.62915 18.5625 7.8479 17.7813 7.77954 16.5606Z" fill="white" fill-opacity="0.6"/>
</svg>
