<svg width="20" height="16" viewBox="0 0 20 16" fill="none" xmlns="http://www.w3.org/2000/svg">
<path d="M2.9917 13.022H17.6108C18.9878 13.022 19.7349 12.2676 19.7349 10.8979V2.4165C19.7349 1.03955 18.9878 0.29248 17.6108 0.29248H2.9917C1.61475 0.29248 0.867676 1.03955 0.867676 2.4165V10.8979C0.867676 12.2676 1.61475 13.022 2.9917 13.022ZM3.12354 11.4473C2.66943 11.4473 2.44238 11.2275 2.44238 10.7661V2.54102C2.44238 2.07959 2.66943 1.86719 3.12354 1.86719H17.4863C17.9404 1.86719 18.1675 2.07959 18.1675 2.54102V10.7661C18.1675 11.2275 17.9404 11.4473 17.4863 11.4473H3.12354ZM12.4546 5.44141C12.8354 5.34619 12.9453 5.25098 12.9453 4.81885V3.3833C12.9453 3.07568 12.8135 2.94385 12.4106 3.04639L10.2793 3.57373C9.89844 3.66895 9.81055 3.75684 9.81055 4.20361V7.3457C9.81055 7.65332 9.78857 7.69727 9.44434 7.79248L8.77783 7.96094C8.06738 8.15137 7.53271 8.57617 7.53271 9.2793C7.53271 9.92383 8.02344 10.3853 8.77051 10.3853C9.83252 10.3853 10.5576 9.62354 10.5576 8.54688V6.1958C10.5576 5.94678 10.6089 5.88818 10.7554 5.85889L12.4546 5.44141ZM6.50732 15.6367H14.0952C14.498 15.6367 14.813 15.3071 14.813 14.9263C14.813 14.5381 14.498 14.2012 14.0952 14.2012H6.50732C6.11182 14.2012 5.78955 14.5381 5.78955 14.9263C5.78955 15.3071 6.11182 15.6367 6.50732 15.6367Z" fill="#EBEBF5" fill-opacity="0.6"/>
</svg>
