<svg width="14" height="8" viewBox="0 0 14 8" fill="none" xmlns="http://www.w3.org/2000/svg">
<path d="M7.23242 7.61572C7.41553 7.61572 7.59863 7.54248 7.72314 7.40332L13.3921 1.59521C13.5166 1.4707 13.5898 1.30957 13.5898 1.12646C13.5898 0.745605 13.3042 0.452637 12.9233 0.452637C12.7402 0.452637 12.5718 0.525879 12.4473 0.643066L7.23242 5.9751L2.01025 0.643066C1.89307 0.525879 1.72461 0.452637 1.53418 0.452637C1.15332 0.452637 0.867676 0.745605 0.867676 1.12646C0.867676 1.30957 0.940918 1.4707 1.06543 1.60254L6.73438 7.40332C6.87354 7.54248 7.04199 7.61572 7.23242 7.61572Z" fill="#EBEBF5" fill-opacity="0.6"/>
</svg>
