<svg width="20" height="18" viewBox="0 0 20 18" fill="none" xmlns="http://www.w3.org/2000/svg">
<path d="M6.92188 1.5415H16.165C16.1211 0.918945 15.7695 0.59668 15.0884 0.59668H7.99121C7.31738 0.59668 6.96582 0.918945 6.92188 1.5415ZM5.41309 3.57031H17.6738C17.564 2.90381 17.249 2.5376 16.5166 2.5376H6.57031C5.83789 2.5376 5.52295 2.90381 5.41309 3.57031ZM8.34277 16.8125H16.9121C18.4355 16.8125 19.2119 16.0508 19.2119 14.542V7.02002C19.2119 5.51123 18.4355 4.74951 16.9121 4.74951H6.16748C4.62939 4.74951 3.86768 5.51123 3.86768 7.02002V9.45898C4.06543 9.43701 4.26318 9.42236 4.45361 9.42236C4.65137 9.42236 4.84912 9.43701 5.04688 9.45898V7.08594C5.04688 6.32422 5.44971 5.92871 6.18213 5.92871H16.8901C17.6152 5.92871 18.0327 6.32422 18.0327 7.08594V14.4761C18.0327 15.2378 17.6152 15.6333 16.8901 15.6333H8.93604C8.79688 16.0581 8.5918 16.4536 8.34277 16.8125ZM4.46094 17.8745C6.4751 17.8745 8.18164 16.1826 8.18164 14.1538C8.18164 12.1104 6.50439 10.4331 4.46094 10.4331C2.41748 10.4331 0.740234 12.1104 0.740234 14.1538C0.740234 16.1973 2.41748 17.8745 4.46094 17.8745ZM3.25244 15.626V12.667C3.25244 12.3594 3.56006 12.2349 3.83105 12.3887L6.21875 13.8096C6.50439 13.978 6.52637 14.3149 6.2627 14.4688L3.83105 15.9043C3.56006 16.0654 3.25244 15.9336 3.25244 15.626Z" fill="#EBEBF5" fill-opacity="0.6"/>
</svg>
