<svg width="16" height="16" viewBox="0 0 16 16" fill="none" xmlns="http://www.w3.org/2000/svg">
<path d="M7.78174 15.1826C11.8687 15.1826 15.2524 11.7915 15.2524 7.71191C15.2524 3.625 11.8613 0.241211 7.77441 0.241211C3.69482 0.241211 0.311035 3.625 0.311035 7.71191C0.311035 11.7915 3.70215 15.1826 7.78174 15.1826ZM7.78174 13.9375C4.32471 13.9375 1.56348 11.1689 1.56348 7.71191C1.56348 4.25488 4.31738 1.48633 7.77441 1.48633C11.2314 1.48633 14.0073 4.25488 14.0073 7.71191C14.0073 11.1689 11.2388 13.9375 7.78174 13.9375ZM3.95117 8.50293H7.77441C8.06006 8.50293 8.28711 8.2832 8.28711 7.99023V3.05371C8.28711 2.76807 8.06006 2.54834 7.77441 2.54834C7.48877 2.54834 7.26904 2.76807 7.26904 3.05371V7.48486H3.95117C3.6582 7.48486 3.43848 7.70459 3.43848 7.99023C3.43848 8.2832 3.6582 8.50293 3.95117 8.50293Z" fill="#EBEBF5" fill-opacity="0.6"/>
</svg>
