<svg width="15" height="15" viewBox="0 0 15 15" fill="none" xmlns="http://www.w3.org/2000/svg">
<path d="M3.16748 14.4648H12.0518C13.5898 14.4648 14.3516 13.7031 14.3516 12.1943V3.25146C14.3516 1.74268 13.5898 0.980957 12.0518 0.980957H3.16748C1.63672 0.980957 0.867676 1.73535 0.867676 3.25146V12.1943C0.867676 13.7104 1.63672 14.4648 3.16748 14.4648ZM3.18213 13.2856C2.44971 13.2856 2.04688 12.8975 2.04688 12.1357V3.31006C2.04688 2.54834 2.44971 2.16016 3.18213 2.16016H12.0371C12.7622 2.16016 13.1724 2.54834 13.1724 3.31006V12.1357C13.1724 12.8975 12.7622 13.2856 12.0371 13.2856H3.18213ZM6.25098 10.5757L10.4185 8.10742C10.7261 7.93164 10.7188 7.50684 10.4185 7.32373L6.25098 4.85547C5.93604 4.67236 5.51855 4.81152 5.51855 5.17041V10.2607C5.51855 10.6123 5.90674 10.7808 6.25098 10.5757Z" fill="#EBEBF5" fill-opacity="0.6"/>
</svg>
