<svg width="53" height="24" viewBox="0 0 53 24" fill="none" xmlns="http://www.w3.org/2000/svg">
<path d="M9.968 17H0.92V0.559999H4.784V13.928H9.968V17ZM25.0064 11.096C25.0064 15.272 22.8944 17.36 18.6704 17.36C14.4624 17.36 12.3584 15.272 12.3584 11.096C12.3584 6.856 14.4624 4.736 18.6704 4.736C22.8944 4.736 25.0064 6.856 25.0064 11.096ZM18.6704 14.432C19.5184 14.432 20.1344 14.176 20.5184 13.664C20.9024 13.136 21.0944 12.28 21.0944 11.096C21.0944 9.896 20.9024 9.024 20.5184 8.48C20.1344 7.936 19.5184 7.664 18.6704 7.664C17.8384 7.664 17.2304 7.936 16.8464 8.48C16.4624 9.024 16.2704 9.896 16.2704 11.096C16.2704 12.28 16.4624 13.136 16.8464 13.664C17.2304 14.176 17.8384 14.432 18.6704 14.432ZM32.7206 11.144C33.8246 11.144 34.3766 10.496 34.3766 9.2C34.3766 7.792 33.8086 7.088 32.6726 7.088C31.5206 7.088 30.9446 7.784 30.9446 9.176C30.9446 10.488 31.5366 11.144 32.7206 11.144ZM34.3046 18.632L31.4726 18.44C31.0566 18.44 30.6326 18.4 30.2006 18.32C30.0406 18.48 29.9606 18.72 29.9606 19.04C29.9606 19.952 31.0086 20.408 33.1046 20.408C33.9686 20.408 34.5926 20.328 34.9766 20.168C35.3606 20.024 35.5526 19.744 35.5526 19.328C35.5526 18.928 35.1366 18.696 34.3046 18.632ZM31.1366 14.912L35.5766 15.224C36.7126 15.304 37.6086 15.608 38.2646 16.136C38.9366 16.648 39.2726 17.416 39.2726 18.44C39.2726 19.448 39.1126 20.28 38.7926 20.936C38.4886 21.608 38.0166 22.112 37.3766 22.448C36.7366 22.784 36.0486 23.016 35.3126 23.144C34.5766 23.272 33.6806 23.336 32.6246 23.336C28.4966 23.336 26.4326 22.184 26.4326 19.88C26.4326 19.32 26.6086 18.8 26.9606 18.32C27.3286 17.856 27.7206 17.584 28.1366 17.504C27.6406 17.296 27.2566 16.944 26.9846 16.448C26.7126 15.952 26.5766 15.408 26.5766 14.816C26.5766 13.648 27.1606 12.728 28.3286 12.056C27.5926 11.336 27.2246 10.344 27.2246 9.08C27.2246 7.768 27.7126 6.72 28.6886 5.936C29.6806 5.136 31.0166 4.736 32.6966 4.736H36.7046C37.5366 4.736 37.9526 4.272 37.9526 3.344L38.8886 3.656C39.5926 3.992 39.9446 4.616 39.9446 5.528C39.9446 6.024 39.8086 6.44 39.5366 6.776C39.2806 7.112 38.8646 7.28 38.2886 7.28C37.8246 7.28 37.3286 7.152 36.8006 6.896L36.7766 6.944C37.6566 7.408 38.0966 8.2 38.0966 9.32C38.0966 10.856 37.6086 11.976 36.6326 12.68C35.6726 13.384 34.4166 13.736 32.8646 13.736C31.8086 13.736 30.9606 13.576 30.3206 13.256C29.9686 13.384 29.7926 13.6 29.7926 13.904C29.7926 14.496 30.2406 14.832 31.1366 14.912ZM52.9674 11.096C52.9674 15.272 50.8554 17.36 46.6314 17.36C42.4234 17.36 40.3194 15.272 40.3194 11.096C40.3194 6.856 42.4234 4.736 46.6314 4.736C50.8554 4.736 52.9674 6.856 52.9674 11.096ZM46.6314 14.432C47.4794 14.432 48.0954 14.176 48.4794 13.664C48.8634 13.136 49.0554 12.28 49.0554 11.096C49.0554 9.896 48.8634 9.024 48.4794 8.48C48.0954 7.936 47.4794 7.664 46.6314 7.664C45.7994 7.664 45.1914 7.936 44.8074 8.48C44.4234 9.024 44.2314 9.896 44.2314 11.096C44.2314 12.28 44.4234 13.136 44.8074 13.664C45.1914 14.176 45.7994 14.432 46.6314 14.432Z" fill="#00D254"/>
</svg>
