<svg width="17" height="17" viewBox="0 0 17 17" fill="none" xmlns="http://www.w3.org/2000/svg">
<path d="M1.32297 1.21015L1.19647 1.37156C0.987878 1.63772 0.811583 1.94721 0.679695 2.28324C0.556694 2.60783 0.4821 2.91202 0.448074 3.21321L0.447735 3.21621C0.14344 5.73878 1.27004 8.09888 4.60737 11.4363C9.11729 15.9459 12.7133 15.6128 12.8341 15.6005C13.1511 15.5623 13.4547 15.4867 13.7656 15.3659C14.0986 15.2358 14.4084 15.0596 14.6749 14.8511L14.8022 14.7515L15.3621 14.2032C15.7246 13.8384 15.7199 13.2754 15.3934 12.9479L12.9179 10.4721C12.9178 10.4719 12.9177 10.4718 12.9175 10.4717C12.5898 10.1457 12.0262 10.1418 11.6625 10.5057L11.6624 10.5058L10.4147 11.7532L10.2021 11.9658L9.93879 11.8207C9.85928 11.7768 9.77705 11.7311 9.69072 11.6827C8.89766 11.2432 7.77792 10.6227 6.60177 9.4457C6.60173 9.44566 6.60169 9.44562 6.60165 9.44558M1.32297 1.21015L4.71211 6.16085C5.1498 6.94887 5.74861 8.02699 6.8846 9.16284L6.60165 9.44558M1.32297 1.21015L1.84342 0.686708C1.84353 0.686591 1.84365 0.686474 1.84377 0.686357C2.20881 0.32158 2.77235 0.326555 3.09835 0.652496L5.5747 3.1294C5.90146 3.45655 5.90628 4.01994 5.54162 4.3847L5.54149 4.38483L5.13018 4.79665L5.12979 4.79703L4.29279 5.63279L4.07639 5.84888L4.22817 6.11437C4.26413 6.17728 4.30049 6.24305 4.33978 6.31413C4.34631 6.32594 4.35292 6.3379 4.35962 6.35002L4.35995 6.3506L4.36487 6.35947C4.80516 7.15219 5.42607 8.27011 6.60165 9.44558M1.32297 1.21015L6.60165 9.44558" stroke="#956D84" stroke-width="0.8"/>
</svg>
