<svg width="30" height="30" viewBox="0 0 30 30" fill="none" xmlns="http://www.w3.org/2000/svg">
<path d="M22.7098 9.57012L20.8198 21.0001C20.7864 21.2006 20.7034 21.3895 20.5781 21.5495C20.4529 21.7096 20.2896 21.8356 20.103 21.9162C19.9165 21.9968 19.7127 22.0293 19.5104 22.0108C19.308 21.9922 19.1136 21.9233 18.9448 21.8101L13.7098 18.2851C13.603 18.2132 13.5138 18.1181 13.4489 18.0069C13.384 17.8957 13.3451 17.7713 13.335 17.643C13.3249 17.5146 13.3439 17.3857 13.3906 17.2657C13.4373 17.1457 13.5105 17.0378 13.6048 16.9501L18.5548 12.2701C18.6017 12.214 18.6276 12.1434 18.6282 12.0702C18.6287 11.9971 18.6038 11.9261 18.5577 11.8693C18.5115 11.8126 18.4471 11.7736 18.3754 11.7592C18.3037 11.7447 18.2293 11.7557 18.1648 11.7901L11.5798 16.2001C11.2625 16.409 10.9025 16.5443 10.5262 16.5962C10.1499 16.6481 9.76675 16.6153 9.40475 16.5001L6.59975 15.6751C6.49999 15.6323 6.41498 15.5612 6.35525 15.4705C6.29551 15.3799 6.26367 15.2737 6.26367 15.1651C6.26367 15.0566 6.29551 14.9504 6.35525 14.8597C6.41498 14.7691 6.49999 14.6979 6.59975 14.6551L15.2548 10.8751L20.6398 8.67012L21.3448 8.40012C21.5162 8.3478 21.6982 8.33961 21.8737 8.37633C22.0491 8.41304 22.2125 8.49347 22.3487 8.61015C22.4848 8.72683 22.5893 8.87599 22.6524 9.04381C22.7155 9.21162 22.7352 9.39265 22.7098 9.57012Z" fill="#F5F5F5"/>
</svg>
