<svg width="30" height="30" viewBox="0 0 30 30" fill="none" xmlns="http://www.w3.org/2000/svg">
<path d="M23.9996 15.0002C23.9996 17.3702 23.5946 19.2902 23.0996 19.2902C22.6046 19.2902 22.1846 17.3702 22.1846 15.0002C22.1846 12.6302 22.5896 10.7102 23.0996 10.7102C23.6096 10.7102 23.9996 12.6302 23.9996 15.0002Z" fill="#F5F5F5"/>
<path d="M21.705 15.0002C21.705 17.6552 20.535 19.8002 19.08 19.8002C17.625 19.8002 16.5 17.6552 16.5 15.0002C16.5 12.3452 17.67 10.2002 19.11 10.2002C20.55 10.2002 21.705 12.3452 21.705 15.0002Z" fill="#F5F5F5"/>
<path d="M16.2 15.0001C16.2 16.0088 15.9009 16.9949 15.3405 17.8336C14.7801 18.6722 13.9836 19.3259 13.0517 19.7119C12.1198 20.0979 11.0943 20.1989 10.105 20.0022C9.11574 19.8054 8.20701 19.3196 7.49376 18.6064C6.78051 17.8931 6.29478 16.9844 6.098 15.9951C5.90121 15.0058 6.00221 13.9804 6.38822 13.0485C6.77422 12.1166 7.4279 11.32 8.26659 10.7597C9.10528 10.1993 10.0913 9.90015 11.1 9.90015C12.4526 9.90015 13.7498 10.4375 14.7062 11.3939C15.6627 12.3503 16.2 13.6475 16.2 15.0001Z" fill="#F5F5F5"/>
</svg>
