<svg width="30" height="30" viewBox="0 0 30 30" fill="none" xmlns="http://www.w3.org/2000/svg">
<path d="M24 9.46495C23.6335 10.2111 23.0329 10.8169 22.29 11.19V11.775C22.2925 13.6772 21.7862 15.5454 20.8236 17.1861C19.861 18.8267 18.4771 20.18 16.8153 21.1058C15.1536 22.0315 13.2745 22.496 11.3728 22.451C9.47114 22.406 7.61611 21.8532 6 20.85C6.25951 20.8725 6.52049 20.8725 6.78 20.85C8.50974 20.8459 10.1866 20.2534 11.535 19.17C10.7562 19.1319 10.0047 18.8715 9.36936 18.4195C8.73401 17.9676 8.24145 17.3431 7.95 16.62C8.19716 16.668 8.44823 16.6931 8.7 16.695C8.97703 16.688 9.25299 16.6579 9.525 16.605C8.82178 16.3605 8.18858 15.9487 7.68 15.405C7.02164 14.7134 6.63312 13.8086 6.585 12.855C7.04649 13.1119 7.5583 13.2654 8.085 13.305C8.17942 13.3198 8.27558 13.3198 8.37 13.305L8.16 13.14C7.54227 12.6361 7.08378 11.964 6.84 11.205C6.72074 10.847 6.65996 10.4722 6.66 10.095C6.66565 9.4479 6.836 8.81294 7.155 8.24995C7.25525 8.40606 7.37082 8.55178 7.5 8.68495C7.725 8.93995 7.965 9.19495 8.22 9.43495C8.94973 10.1358 9.78488 10.7179 10.695 11.16C11.0524 11.3477 11.4234 11.5082 11.805 11.64C12.1051 11.7457 12.4105 11.8358 12.72 11.91C13.3396 12.0617 13.9727 12.1521 14.61 12.18H14.88C14.7114 11.546 14.7114 10.8789 14.88 10.245C14.9386 10.0086 15.0295 9.78151 15.15 9.56995C15.27 9.36974 15.4054 9.17916 15.555 8.99995L15.66 8.86495C16.0011 8.46537 16.4195 8.13883 16.89 7.90495C17.1206 7.79547 17.3619 7.71002 17.61 7.64995L18 7.58995C18.1847 7.57451 18.3703 7.57451 18.555 7.58995C19.0741 7.59042 19.5874 7.69865 20.0625 7.90779C20.5376 8.11694 20.9641 8.42244 21.315 8.80495C21.5022 8.7908 21.6879 8.76069 21.87 8.71495C22.323 8.62517 22.7585 8.4631 23.16 8.23495C23.321 8.15256 23.472 8.0519 23.61 7.93495C23.388 8.72437 22.9073 9.41637 22.245 9.89995C22.8518 9.86427 23.4468 9.7168 24 9.46495Z" fill="#F5F5F5"/>
</svg>
