<svg width="18" height="18" viewBox="0 0 18 18" fill="none" xmlns="http://www.w3.org/2000/svg">
<path d="M17.0123 10.9545L15.6022 11.1337C15.486 11.4915 15.3427 11.8365 15.1755 12.1642L16.0462 13.2855C16.3988 13.7393 16.3575 14.3797 15.9548 14.7697L14.7735 15.951C14.3798 16.3575 13.7392 16.398 13.2847 16.0462L12.165 15.1755C11.8372 15.3428 11.4923 15.486 11.1337 15.6023L10.9545 17.01C10.887 17.5747 10.4078 18 9.84 18H8.16C7.59225 18 7.113 17.5747 7.0455 17.0122L6.86625 15.6023C6.50775 15.486 6.16275 15.3435 5.835 15.1755L4.7145 16.0462C4.2615 16.398 3.621 16.3575 3.23025 15.9548L2.049 14.7743C1.6425 14.3797 1.60125 13.7392 1.95375 13.2847L2.8245 12.1642C2.6565 11.8365 2.514 11.4915 2.39775 11.1337L0.99 10.9545C0.42525 10.887 0 10.4078 0 9.84V8.16C0 7.59225 0.42525 7.113 0.98775 7.0455L2.39775 6.86625C2.514 6.5085 2.65725 6.1635 2.8245 5.83575L1.95375 4.7145C1.60125 4.26075 1.6425 3.62025 2.04525 3.23025L3.2265 2.049C3.621 1.64325 4.26075 1.60275 4.71525 1.9545L5.83575 2.82525C6.1635 2.65725 6.5085 2.514 6.86625 2.3985L7.0455 0.991501C7.113 0.425251 7.59225 0 8.16 0H9.84C10.4078 0 10.887 0.425249 10.9545 0.987749L11.1337 2.39775C11.4915 2.514 11.8365 2.65725 12.1642 2.8245L13.2855 1.95375C13.7393 1.60125 14.3798 1.6425 14.7698 2.04525L15.951 3.2265C16.3575 3.621 16.3988 4.26075 16.0462 4.71525L15.1755 5.83575C15.3435 6.1635 15.4867 6.5085 15.6022 6.86625L17.0093 7.0455C17.574 7.113 17.9993 7.59225 17.9993 8.16V9.84C18 10.4078 17.5748 10.887 17.0123 10.9545ZM9 5.25C6.93225 5.25 5.25 6.93225 5.25 9C5.25 11.0677 6.93225 12.75 9 12.75C11.0677 12.75 12.75 11.0677 12.75 9C12.75 6.93225 11.0677 5.25 9 5.25Z" fill="url(#paint0_linear_0_2861)"/>
<defs>
<linearGradient id="paint0_linear_0_2861" x1="18" y1="12.5" x2="3" y2="5.5" gradientUnits="userSpaceOnUse">
<stop stop-color="#21D4FD"/>
<stop offset="1" stop-color="#E40ECF"/>
</linearGradient>
</defs>
</svg>
