<svg width="19" height="19" viewBox="0 0 19 19" fill="none" xmlns="http://www.w3.org/2000/svg">
<path d="M9.23438 0.00890844C5.45208 0.00890844 1.86042 -0.32755 0.488544 3.19328C-0.0781231 4.64745 0.00416867 6.53599 0.00416867 9.24016C0.00416867 11.6131 -0.0718731 13.8433 0.488544 15.286C1.85729 18.8089 5.47813 18.4714 9.23229 18.4714C12.8542 18.4714 16.5885 18.8485 17.9771 15.286C18.5448 13.8172 18.4615 11.9568 18.4615 9.24016C18.4615 5.63391 18.6604 3.30578 16.9115 1.55787C15.1406 -0.212967 12.7458 0.00890844 9.23021 0.00890844H9.23438ZM9 1.5C16 1.5 17.5 1 17 13C16.5 17 13.2058 17.2111 9.23438 17.2111C2.27816 17.2111 1.30021 16.5 1.14849 9.24016C0.976287 1 3.49999 1.5 9 1.5ZM14.1615 3.20474C13.55 3.20474 13.0542 3.70057 13.0542 4.31203C13.0542 4.92349 13.55 5.41933 14.1615 5.41933C14.7729 5.41933 15.2688 4.92349 15.2688 4.31203C15.2688 3.70057 14.7729 3.20474 14.1615 3.20474ZM9.23438 4.49953C6.61667 4.49953 4.49479 6.62245 4.49479 9.24016C4.49479 11.8579 6.61667 13.9797 9.23438 13.9797C11.8521 13.9797 13.9729 11.8579 13.9729 9.24016C13.9729 6.62245 11.8521 4.49953 9.23438 4.49953ZM9.23438 6.16307C13.3021 6.16307 13.3073 12.3172 9.23438 12.3172C5.16771 12.3172 5.16146 6.16307 9.23438 6.16307Z" fill="white"/>
</svg>
