<svg width="136" height="56" viewBox="0 0 136 56" fill="none" xmlns="http://www.w3.org/2000/svg">
<path fill-rule="evenodd" clip-rule="evenodd" d="M45.3735 50.4202H17.8585V40.4506L12.2853 33.0062V56H41.2016L45.3735 50.4202Z" fill="white"/>
<path fill-rule="evenodd" clip-rule="evenodd" d="M41.2016 17.922L45.3735 12.3387H12.2853V19.1757L17.8585 26.6344V17.9149L41.2016 17.922Z" fill="white"/>
<path fill-rule="evenodd" clip-rule="evenodd" d="M50.3614 5.58331L55.9347 9.53283V0H0V9.52928L5.5697 5.58331V5.57976H25.1807V9.62162H30.7504V5.57976H50.3614V5.58331Z" fill="white"/>
<path fill-rule="evenodd" clip-rule="evenodd" d="M48.7544 12.3387L30.6795 36.5295V30.3352H33.4005L27.9407 22.1983L22.5342 30.3352H25.2517V36.5295L7.1803 12.3387H0V56H5.5697V19.499L27.9656 49.9869L50.3614 19.499L50.3508 56H55.9347V12.3387H48.7544Z" fill="#ED2224"/>
<path d="M118.592 12.1682V29.8061H114.363V19.9287L109.134 23.2673L104.065 19.9571V29.8061H99.836V12.1682L109.187 18.2204L118.592 12.1682Z" fill="white"/>
<path d="M136 27.5791C134.4 28.9075 132.367 29.7208 130.118 29.7208C125.13 29.7208 121.065 25.6505 121.065 20.6568C121.065 15.6382 125.13 11.568 130.118 11.568C132.367 11.568 134.4 12.3813 136 13.7381L133.29 16.4232C132.396 15.7448 131.285 15.3648 130.118 15.3648C128.71 15.3648 127.408 15.9082 126.407 16.9098C125.403 17.9149 124.861 19.2432 124.861 20.6533C124.861 22.0633 125.403 23.3668 126.407 24.3719C127.411 25.3771 128.71 25.9205 130.118 25.9205C131.282 25.9205 132.396 25.5404 133.29 24.8621L136 27.5791Z" fill="white"/>
<path d="M79.9021 12.1682V18.437L82.7721 16.4019H86.2097V29.8061H90.4384V16.4019H93.8725L96.746 18.437V12.1682H79.9021Z" fill="white"/>
<path d="M86.7696 44.5611H88.4511L85.3552 37.6293H83.7727L80.6867 44.5611H82.3286L82.9418 43.0757H86.1564L86.7696 44.5611ZM83.4562 41.8577L84.5541 39.2038L85.652 41.8577H83.4562Z" fill="white"/>
<path d="M102.412 37.6293L100.276 42.5806L98.1693 37.6293H96.4384L99.4254 44.5611H101.008L104.005 37.6293H102.412Z" fill="white"/>
<path d="M114.592 44.5611H116.194V38.9365H118.41V37.6293H112.377V38.9365H114.592V44.5611Z" fill="white"/>
<path d="M131.084 44.6799C133.26 44.6799 134.872 43.1648 134.872 41.0952C134.872 39.0256 133.26 37.5105 131.084 37.5105C128.898 37.5105 127.296 39.0355 127.296 41.0952C127.296 43.1549 128.898 44.6799 131.084 44.6799ZM131.084 43.3133C129.848 43.3133 128.918 42.4122 128.918 41.0952C128.918 39.7782 129.848 38.877 131.084 38.877C132.321 38.877 133.25 39.7782 133.25 41.0952C133.25 42.4122 132.321 43.3133 131.084 43.3133Z" fill="white"/>
</svg>
